# xmcd CD database file
#
# Track frame offsets:
#	300
#	15497
#	31397
#	46745
#	61290
#	79992
#	95806
#	109743
#	126880
#	147765
#	164702
#	179343
#	196877
#	211467
#
# Disc length: 3072 seconds
#
# Revision: 0
# Processed by: cddbd v1.5.2PL0 Copyright (c) Steve Scherf et al.
# Submitted via: CdAid (MTCDDB.DLL V2003.12.21)
#
DISCID=c60bfc0e
DTITLE=Norah Jones - Feels Like Home
DYEAR=2003
DGENRE=Jazz
TTITLE0=Sunrise
TTITLE1=What Am I to You?
TTITLE2=Those Sweet Words
TTITLE3=Carnival Town
TTITLE4=In the Morning
TTITLE5=Be Here to Love Me
TTITLE6=Creepin'In
TTITLE7=Toes
TTITLE8=Humble Me
TTITLE9=Above Ground
TTITLE10=The Long Way Home
TTITLE11=The Prettiest Thing
TTITLE12=Don't Miss You At All
TTITLE13=Sleepless Nights
EXTD=YEAR: 2003 ID3G:   8
EXTT0=
EXTT1=
EXTT2=
EXTT3=
EXTT4=
EXTT5=
EXTT6=
EXTT7=
EXTT8=
EXTT9=
EXTT10=
EXTT11=
EXTT12=
EXTT13=
PLAYORDER=
